# xmcd
#
# Track frame offsets:
#	150
#	16890
#	33135
#	50183
#	70554
#	90475
#	109829
#	131355
#	146798
#	160886
#	180616
#	187674
#	203122
#	224227
#	241352
#
# Disc length: 3415 seconds
#
# Revision: 0
# Processed by: cddbd v1.5.2PL0 Copyright (c) Steve Scherf et al.
# Submitted via: dBpowerAMP V4.0
#
DISCID=d00d550f
DTITLE=Henry Gray and the Cats - Times Are Gettin' Hard
DYEAR=2009
DGENRE=Blues
TTITLE0=Trouble trouble
TTITLE1=Times are gettin' hard
TTITLE2=Com on in
TTITLE3=Wanda faye
TTITLE4=Goin' downtown
TTITLE5=Please be caraful
TTITLE6=Katarina Katarina
TTITLE7=How could you di it
TTITLE8=Jump on board
TTITLE9=Going down slow
TTITLE10=Stroll is back
TTITLE11=How much more
TTITLE12=That ain't right
TTITLE13=Barack Obama boggie
TTITLE14=What you gonna do
EXTD=
EXTT0=
EXTT1=
EXTT2=
EXTT3=
EXTT4=
EXTT5=
EXTT6=
EXTT7=
EXTT8=
EXTT9=
EXTT10=
EXTT11=
EXTT12=
EXTT13=
EXTT14=
PLAYORDER=
